<svg xmlns="http://www.w3.org/2000/svg" viewBox="-20.0 -99.19999999999999 854.9999999999998 1395.2" width="854.9999999999998" height="1395.2">
<rect x="-20.0" y="-99.19999999999999" width="854.9999999999998" height="1395.2" fill="#ffffff" />
<ellipse cx="420.0999999999999" cy="35.0" rx="100.0" ry="35.0" fill="#dee2e6" stroke="#495057" stroke-width="2" opacity="1.0" />
<rect x="320.0999999999999" y="170.0" width="200" height="70" rx="8" ry="8" fill="#dee2e6" stroke="#495057" stroke-width="2" opacity="1.0" />
<rect x="202.39999999999998" y="340.0" width="435.39999999999986" height="86.0" rx="8" ry="8" fill="#a5d8ff" stroke="#1971c2" stroke-width="2" opacity="1.0" />
<rect x="28.59999999999991" y="510.0" width="365.79999999999995" height="86.0" rx="8" ry="8" fill="#a5d8ff" stroke="#1971c2" stroke-width="2" opacity="1.0" />
<polygon points="628.6999999999999,510.0 796.8,553.0 628.6999999999999,596.0 460.5999999999999,553.0" fill="#a5d8ff" stroke="#1971c2" stroke-width="2" opacity="1.0" />
<rect x="0.0" y="680.0" width="422.9999999999999" height="86.0" rx="8" ry="8" fill="#ffd8a8" stroke="#e8590c" stroke-width="2" opacity="1.0" />
<rect x="24.799999999999955" y="850.0" width="373.4" height="86.0" rx="8" ry="8" fill="#ffd8a8" stroke="#e8590c" stroke-width="2" opacity="1.0" />
<rect x="111.49999999999989" y="1020.0" width="200" height="70" rx="8" ry="8" fill="#ffd8a8" stroke="#e8590c" stroke-width="2" opacity="1.0" />
<rect x="37.19999999999993" y="1190.0" width="348.6" height="86.0" rx="8" ry="8" fill="#b2f2bb" stroke="#2f9e44" stroke-width="2" opacity="1.0" />
<ellipse cx="628.6999999999999" cy="723.0" rx="145.70000000000005" ry="43.0" fill="#b2f2bb" stroke="#2f9e44" stroke-width="2" opacity="1.0" />
<text x="74.99999999999972" y="-49.8" font-size="28" fill="#1e1e1e" text-anchor="start" opacity="1.0" font-family="Arial, sans-serif">Bitbucket → CodeBuild ARM64 Architecture</text>
<text x="420.0999999999999" y="42.0" font-size="20" fill="#1e1e1e" text-anchor="middle" opacity="1.0" font-family="Arial, sans-serif">Developer</text>
<text x="420.0999999999999" y="212.0" font-size="20" fill="#1e1e1e" text-anchor="middle" opacity="1.0" font-family="Arial, sans-serif">git push</text>
<text x="420.0999999999999" y="390.0" font-size="20" fill="#1e1e1e" text-anchor="middle" opacity="1.0" font-family="Arial, sans-serif"><tspan x="420.0999999999999" dy="0">Bitbucket Pipeline</tspan><tspan x="420.0999999999999" dy="28.0">(x86 runner)</tspan></text>
<text x="211.4999999999999" y="560.0" font-size="20" fill="#1e1e1e" text-anchor="middle" opacity="1.0" font-family="Arial, sans-serif"><tspan x="211.4999999999999" dy="0">aws codebuild</tspan><tspan x="211.4999999999999" dy="28.0">start-build</tspan></text>
<text x="628.6999999999999" y="560.0" font-size="20" fill="#1e1e1e" text-anchor="middle" opacity="1.0" font-family="Arial, sans-serif"><tspan x="628.6999999999999" dy="0">Poll status</tspan><tspan x="628.6999999999999" dy="28.0">(every 10s)</tspan></text>
<text x="211.49999999999994" y="730.0" font-size="20" fill="#1e1e1e" text-anchor="middle" opacity="1.0" font-family="Arial, sans-serif"><tspan x="211.49999999999994" dy="0">AWS CodeBuild</tspan><tspan x="211.49999999999994" dy="28.0">(ARM64 Graviton)</tspan></text>
<text x="211.49999999999994" y="900.0" font-size="20" fill="#1e1e1e" text-anchor="middle" opacity="1.0" font-family="Arial, sans-serif"><tspan x="211.49999999999994" dy="0">docker build</tspan><tspan x="211.49999999999994" dy="28.0">(ARM64 natif)</tspan></text>
<text x="211.4999999999999" y="1062.0" font-size="20" fill="#1e1e1e" text-anchor="middle" opacity="1.0" font-family="Arial, sans-serif">docker push</text>
<text x="211.49999999999994" y="1240.0" font-size="20" fill="#1e1e1e" text-anchor="middle" opacity="1.0" font-family="Arial, sans-serif"><tspan x="211.49999999999994" dy="0">Amazon ECR</tspan><tspan x="211.49999999999994" dy="28.0">(ARM64 image)</tspan></text>
<text x="628.6999999999999" y="730.0" font-size="20" fill="#1e1e1e" text-anchor="middle" opacity="1.0" font-family="Arial, sans-serif"><tspan x="628.6999999999999" dy="0">✅ Pipeline</tspan><tspan x="628.6999999999999" dy="28.0">Complete</tspan></text>
<text x="441.7999999999999" y="643.6" font-size="16" fill="#1e1e1e" text-anchor="middle" opacity="1.0" font-family="Arial, sans-serif">check</text>
<text x="628.6999999999999" y="643.6" font-size="16" fill="#1e1e1e" text-anchor="middle" opacity="1.0" font-family="Arial, sans-serif">SUCCEEDED</text>
<defs><marker id="arrowhead-end-arrow_ODjKCOYIxl" markerWidth="10" markerHeight="7" refX="9" refY="3.5" orient="auto"><polygon points="0 0, 10 3.5, 0 7" fill="#1e1e1e" /></marker></defs><path d="M 420.0999999999999 70.0 L 420.0999999999999 170.0" fill="none" stroke="#1e1e1e" stroke-width="2" opacity="1.0"  marker-end="url(#arrowhead-end-arrow_ODjKCOYIxl)"  />
<defs><marker id="arrowhead-end-arrow_gmC0mOk030" markerWidth="10" markerHeight="7" refX="9" refY="3.5" orient="auto"><polygon points="0 0, 10 3.5, 0 7" fill="#1e1e1e" /></marker></defs><path d="M 420.0999999999999 240.0 L 420.0999999999999 340.0" fill="none" stroke="#1e1e1e" stroke-width="2" opacity="1.0"  marker-end="url(#arrowhead-end-arrow_gmC0mOk030)"  />
<defs><marker id="arrowhead-end-arrow_zFF5CKLxVq" markerWidth="10" markerHeight="7" refX="9" refY="3.5" orient="auto"><polygon points="0 0, 10 3.5, 0 7" fill="#1e1e1e" /></marker></defs><path d="M 202.39999999999998 383.0 L 394.39999999999986 553.0" fill="none" stroke="#1e1e1e" stroke-width="2" opacity="1.0"  marker-end="url(#arrowhead-end-arrow_zFF5CKLxVq)"  />
<defs><marker id="arrowhead-end-arrow_pi0TbsQBol" markerWidth="10" markerHeight="7" refX="9" refY="3.5" orient="auto"><polygon points="0 0, 10 3.5, 0 7" fill="#1e1e1e" /></marker></defs><path d="M 211.4999999999999 596.0 L 211.49999999999994 680.0" fill="none" stroke="#1e1e1e" stroke-width="2" opacity="1.0"  marker-end="url(#arrowhead-end-arrow_pi0TbsQBol)"  />
<defs><marker id="arrowhead-end-arrow_LMANrhnb0Z" markerWidth="10" markerHeight="7" refX="9" refY="3.5" orient="auto"><polygon points="0 0, 10 3.5, 0 7" fill="#1e1e1e" /></marker></defs><path d="M 637.7999999999998 383.0 L 460.5999999999999 553.0" fill="none" stroke="#1e1e1e" stroke-width="2" opacity="1.0"  marker-end="url(#arrowhead-end-arrow_LMANrhnb0Z)"  />
<defs><marker id="arrowhead-end-arrow_NY7VxvuveC" markerWidth="10" markerHeight="7" refX="9" refY="3.5" orient="auto"><polygon points="0 0, 10 3.5, 0 7" fill="#1e1e1e" /></marker></defs><path d="M 460.5999999999999 553.0 L 422.9999999999999 723.0" fill="none" stroke="#1e1e1e" stroke-width="2" opacity="1.0"  marker-end="url(#arrowhead-end-arrow_NY7VxvuveC)"  />
<defs><marker id="arrowhead-end-arrow_MIDAGdnA6W" markerWidth="10" markerHeight="7" refX="9" refY="3.5" orient="auto"><polygon points="0 0, 10 3.5, 0 7" fill="#1e1e1e" /></marker></defs><path d="M 211.49999999999994 766.0 L 211.49999999999994 850.0" fill="none" stroke="#1e1e1e" stroke-width="2" opacity="1.0"  marker-end="url(#arrowhead-end-arrow_MIDAGdnA6W)"  />
<defs><marker id="arrowhead-end-arrow_LmRFXEcRmO" markerWidth="10" markerHeight="7" refX="9" refY="3.5" orient="auto"><polygon points="0 0, 10 3.5, 0 7" fill="#1e1e1e" /></marker></defs><path d="M 211.49999999999994 936.0 L 211.4999999999999 1020.0" fill="none" stroke="#1e1e1e" stroke-width="2" opacity="1.0"  marker-end="url(#arrowhead-end-arrow_LmRFXEcRmO)"  />
<defs><marker id="arrowhead-end-arrow_Dh8SOOouKM" markerWidth="10" markerHeight="7" refX="9" refY="3.5" orient="auto"><polygon points="0 0, 10 3.5, 0 7" fill="#1e1e1e" /></marker></defs><path d="M 211.4999999999999 1090.0 L 211.49999999999994 1190.0" fill="none" stroke="#1e1e1e" stroke-width="2" opacity="1.0"  marker-end="url(#arrowhead-end-arrow_Dh8SOOouKM)"  />
<defs><marker id="arrowhead-end-arrow_P013sAhY9h" markerWidth="10" markerHeight="7" refX="9" refY="3.5" orient="auto"><polygon points="0 0, 10 3.5, 0 7" fill="#1e1e1e" /></marker></defs><path d="M 628.6999999999999 596.0 L 628.6999999999999 680.0" fill="none" stroke="#1e1e1e" stroke-width="2" opacity="1.0"  marker-end="url(#arrowhead-end-arrow_P013sAhY9h)"  />
</svg>