<svg xmlns="http://www.w3.org/2000/svg" viewBox="-20.0 -99.19999999999999 1718.1999999999996 406.2" width="1718.1999999999996" height="406.2">
<rect x="-20.0" y="-99.19999999999999" width="1718.1999999999996" height="406.2" fill="#ffffff" />
<rect x="0.0" y="130.0" width="200" height="70" rx="8" ry="8" fill="#d0bfff" stroke="#7048e8" stroke-width="2" opacity="1.0" />
<rect x="1312.3999999999996" y="130.0" width="365.79999999999995" height="86.0" rx="8" ry="8" fill="#b2f2bb" stroke="#2f9e44" stroke-width="2" opacity="1.0" />
<rect x="765.8" y="65.0" width="446.59999999999985" height="86.0" rx="8" ry="8" fill="#ffd8a8" stroke="#e8590c" stroke-width="2" opacity="1.0" />
<rect x="352.29999999999995" y="0.0" width="261.20000000000005" height="86.0" rx="8" ry="8" fill="#a5d8ff" stroke="#1971c2" stroke-width="2" opacity="1.0" />
<text x="616.3599999999997" y="-49.8" font-size="28" fill="#1e1e1e" text-anchor="start" opacity="1.0" font-family="Arial, sans-serif">Infrastructure (Terraform)</text>
<text x="100.0" y="172.0" font-size="20" fill="#1e1e1e" text-anchor="middle" opacity="1.0" font-family="Arial, sans-serif">Terraform</text>
<text x="1495.2999999999997" y="180.0" font-size="20" fill="#1e1e1e" text-anchor="middle" opacity="1.0" font-family="Arial, sans-serif"><tspan x="1495.2999999999997" dy="0">ECR Repository</tspan><tspan x="1495.2999999999997" dy="28.0">arm64-demo</tspan></text>
<text x="989.0999999999999" y="115.0" font-size="20" fill="#1e1e1e" text-anchor="middle" opacity="1.0" font-family="Arial, sans-serif"><tspan x="989.0999999999999" dy="0">CodeBuild Project</tspan><tspan x="989.0999999999999" dy="28.0">ARM64 Graviton</tspan></text>
<text x="482.9" y="50.0" font-size="20" fill="#1e1e1e" text-anchor="middle" opacity="1.0" font-family="Arial, sans-serif"><tspan x="482.9" dy="0">IAM Role</tspan><tspan x="482.9" dy="28.0">+ Policy</tspan></text>
<text x="689.65" y="81.1" font-size="16" fill="#1e1e1e" text-anchor="middle" opacity="1.0" font-family="Arial, sans-serif">assume role</text>
<text x="1262.3999999999996" y="146.1" font-size="16" fill="#1e1e1e" text-anchor="middle" opacity="1.0" font-family="Arial, sans-serif">push image</text>
<defs><marker id="arrowhead-end-arrow_1sNy2RLLBx" markerWidth="10" markerHeight="7" refX="9" refY="3.5" orient="auto"><polygon points="0 0, 10 3.5, 0 7" fill="#1e1e1e" /></marker></defs><path d="M 200.0 165.0 L 1312.3999999999996 173.0" fill="none" stroke="#1e1e1e" stroke-width="2" opacity="1.0"  marker-end="url(#arrowhead-end-arrow_1sNy2RLLBx)"  />
<defs><marker id="arrowhead-end-arrow_qZYVEQCm0f" markerWidth="10" markerHeight="7" refX="9" refY="3.5" orient="auto"><polygon points="0 0, 10 3.5, 0 7" fill="#1e1e1e" /></marker></defs><path d="M 200.0 165.0 L 765.8 108.0" fill="none" stroke="#1e1e1e" stroke-width="2" opacity="1.0"  marker-end="url(#arrowhead-end-arrow_qZYVEQCm0f)"  />
<defs><marker id="arrowhead-end-arrow_icIn2Uq32d" markerWidth="10" markerHeight="7" refX="9" refY="3.5" orient="auto"><polygon points="0 0, 10 3.5, 0 7" fill="#1e1e1e" /></marker></defs><path d="M 200.0 165.0 L 352.29999999999995 43.0" fill="none" stroke="#1e1e1e" stroke-width="2" opacity="1.0"  marker-end="url(#arrowhead-end-arrow_icIn2Uq32d)"  />
<defs><marker id="arrowhead-end-arrow_2ADxFvh18J" markerWidth="10" markerHeight="7" refX="9" refY="3.5" orient="auto"><polygon points="0 0, 10 3.5, 0 7" fill="#1e1e1e" /></marker></defs><path d="M 613.5 43.0 L 765.8 108.0" fill="none" stroke="#1e1e1e" stroke-width="2" opacity="1.0"  marker-end="url(#arrowhead-end-arrow_2ADxFvh18J)"  />
<defs><marker id="arrowhead-end-arrow_vh5Eoyg3oF" markerWidth="10" markerHeight="7" refX="9" refY="3.5" orient="auto"><polygon points="0 0, 10 3.5, 0 7" fill="#1e1e1e" /></marker></defs><path d="M 1212.3999999999999 108.0 L 1312.3999999999996 173.0" fill="none" stroke="#1e1e1e" stroke-width="2" opacity="1.0"  marker-end="url(#arrowhead-end-arrow_vh5Eoyg3oF)"  />
</svg>